<svg width="377" height="115" viewBox="0 0 377 115" fill="none" xmlns="http://www.w3.org/2000/svg">
<path d="M8.135 56V16.345H12.59V51.545H47.735V56H8.135ZM51.0513 56V23C51.0513 21.79 51.3447 20.69 51.9313 19.7C52.518 18.6733 53.3063 17.8667 54.2963 17.28C55.323 16.6933 56.4413 16.4 57.6513 16.4H84.0513C85.2613 16.4 86.3613 16.6933 87.3513 17.28C88.378 17.8667 89.1847 18.6733 89.7713 19.7C90.358 20.69 90.6513 21.79 90.6513 23V56H86.1963V41.535H55.5063V56H51.0513ZM55.5063 37.08H86.1963V23C86.1963 22.4133 85.9763 21.9183 85.5363 21.515C85.133 21.075 84.638 20.855 84.0513 20.855H57.6513C57.0647 20.855 56.5513 21.075 56.1113 21.515C55.708 21.9183 55.5063 22.4133 55.5063 23V37.08ZM133.683 56L110.748 16.4H115.973L136.268 51.655L156.508 16.4H161.733L138.853 56H133.683ZM167.174 56V16.4H203.309V20.855H171.629V33.945H197.094V38.455H171.629V51.545H203.309V56H167.174ZM209.229 56V16.345H213.684V51.545H248.829V56H209.229ZM252.09 56V16.345H256.545V51.545H291.69V56H252.09ZM295.006 56V23C295.006 21.79 295.3 20.69 295.886 19.7C296.473 18.6733 297.261 17.8667 298.251 17.28C299.278 16.6933 300.396 16.4 301.606 16.4H328.006C329.216 16.4 330.316 16.6933 331.306 17.28C332.333 17.8667 333.14 18.6733 333.726 19.7C334.313 20.69 334.606 21.79 334.606 23V56H330.151V41.535H299.461V56H295.006ZM299.461 37.08H330.151V23C330.151 22.4133 329.931 21.9183 329.491 21.515C329.088 21.075 328.593 20.855 328.006 20.855H301.606C301.02 20.855 300.506 21.075 300.066 21.515C299.663 21.9183 299.461 22.4133 299.461 23V37.08Z" fill="white"/>
<path d="M6.635 108.128C6.375 108.128 6.245 107.955 6.245 107.61V98.4375H13.025V107.61C13.025 107.955 12.8925 108.128 12.6275 108.128C12.3675 108.128 12.2375 107.955 12.2375 107.61V99.225H7.0325V107.61C7.0325 107.955 6.9 108.128 6.635 108.128ZM18.4728 108.023C17.7028 108.023 17.0753 107.947 16.5903 107.797C16.1053 107.642 15.7453 107.372 15.5103 106.987C15.2803 106.602 15.1653 106.06 15.1653 105.36V103.717C15.1653 103.022 15.2803 102.482 15.5103 102.097C15.7453 101.712 16.1053 101.445 16.5903 101.295C17.0753 101.14 17.7028 101.062 18.4728 101.062H18.9078C19.6728 101.062 20.2978 101.14 20.7828 101.295C21.2728 101.445 21.6328 101.712 21.8628 102.097C22.0928 102.482 22.2078 103.022 22.2078 103.717V104.325H15.9528V105.352C15.9528 105.882 16.0253 106.282 16.1703 106.552C16.3153 106.822 16.5703 107.005 16.9353 107.1C17.3053 107.19 17.8178 107.235 18.4728 107.235H20.5578C20.8728 107.235 21.0878 107.167 21.2028 107.032C21.3228 106.897 21.3828 106.675 21.3828 106.365C21.3828 106.18 21.4203 106.042 21.4953 105.952C21.5753 105.857 21.6678 105.81 21.7728 105.81C21.8878 105.81 21.9828 105.855 22.0578 105.945C22.1328 106.035 22.1703 106.162 22.1703 106.327C22.1703 106.657 22.1303 106.952 22.0503 107.212C21.9703 107.467 21.8228 107.667 21.6078 107.812C21.3928 107.952 21.0778 108.023 20.6628 108.023H18.4728ZM15.9528 103.537H21.4128C21.4028 102.907 21.2503 102.475 20.9553 102.24C20.7703 102.085 20.5078 101.982 20.1678 101.932C19.8328 101.877 19.4128 101.85 18.9078 101.85H18.4728C17.9728 101.85 17.5578 101.875 17.2278 101.925C16.8978 101.97 16.6378 102.06 16.4478 102.195C16.1278 102.425 15.9628 102.872 15.9528 103.537ZM24.5612 110.753C24.3062 110.753 24.1787 110.575 24.1787 110.22V101.475C24.1787 101.13 24.3112 100.957 24.5762 100.957C24.7112 100.957 24.8087 101.002 24.8687 101.092C24.9337 101.182 24.9662 101.327 24.9662 101.527V102.405L24.8312 102.225C25.1162 101.83 25.4812 101.537 25.9262 101.347C26.3712 101.157 26.8937 101.062 27.4937 101.062H27.9287C28.6937 101.062 29.3187 101.14 29.8037 101.295C30.2887 101.445 30.6462 101.712 30.8762 102.097C31.1062 102.482 31.2212 103.022 31.2212 103.717V105.36C31.2212 106.06 31.1062 106.602 30.8762 106.987C30.6462 107.372 30.2887 107.642 29.8037 107.797C29.3187 107.947 28.6962 108.023 27.9362 108.023H24.9662V110.22C24.9662 110.575 24.8312 110.753 24.5612 110.753ZM24.9662 107.235H27.9362C28.5912 107.235 29.0987 107.19 29.4587 107.1C29.8187 107.005 30.0712 106.822 30.2162 106.552C30.3612 106.277 30.4337 105.877 30.4337 105.352V103.732C30.4337 103.177 30.3562 102.767 30.2012 102.502C30.0462 102.232 29.7862 102.057 29.4212 101.977C29.0562 101.892 28.5587 101.85 27.9287 101.85H27.4937C26.6637 101.85 26.0337 102.077 25.6037 102.532C25.1787 102.987 24.9662 103.65 24.9662 104.52V107.235ZM33.2389 108.023V101.062H37.7839C38.4689 101.062 39.0364 101.22 39.4864 101.535C39.9414 101.85 40.1689 102.327 40.1689 102.967C40.1689 103.392 40.0889 103.712 39.9289 103.927C39.7689 104.142 39.5464 104.315 39.2614 104.445C39.8664 104.82 40.1689 105.352 40.1689 106.042C40.1689 106.497 40.0639 106.872 39.8539 107.167C39.6489 107.457 39.3664 107.672 39.0064 107.812C38.6464 107.952 38.2389 108.023 37.7839 108.023H33.2389ZM34.0264 107.235H37.6789C38.8139 107.235 39.3814 106.915 39.3814 106.275C39.3814 105.78 39.2464 105.415 38.9764 105.18C38.7114 104.94 38.2989 104.82 37.7389 104.82H34.0264V107.235ZM34.0264 104.032H37.7389C38.3189 104.032 38.7389 103.95 38.9989 103.785C39.2639 103.62 39.3964 103.292 39.3964 102.802C39.3964 102.167 38.8239 101.85 37.6789 101.85H34.0264V104.032ZM42.2038 108.023V101.49C42.2038 101.135 42.3338 100.957 42.5938 100.957C42.8588 100.957 42.9913 101.135 42.9913 101.49V104.032H46.1788C46.6388 104.032 47.0463 104.102 47.4013 104.242C47.7613 104.377 48.0438 104.592 48.2488 104.887C48.4588 105.177 48.5638 105.555 48.5638 106.02C48.5638 106.49 48.4588 106.872 48.2488 107.167C48.0438 107.457 47.7613 107.672 47.4013 107.812C47.0463 107.947 46.6388 108.018 46.1788 108.023H42.2038ZM42.9913 107.235H46.0663C46.6163 107.235 47.0388 107.14 47.3338 106.95C47.6338 106.76 47.7838 106.452 47.7838 106.027C47.7838 105.672 47.7013 105.41 47.5363 105.24C47.3713 105.065 47.1563 104.952 46.8913 104.902C46.6313 104.847 46.3563 104.82 46.0663 104.82H42.9913V107.235ZM49.7863 108.18C49.5263 108.18 49.3962 108.02 49.3962 107.7V101.4C49.3962 101.235 49.4287 101.11 49.4938 101.025C49.5638 100.94 49.6613 100.897 49.7863 100.897C49.9163 100.897 50.0138 100.94 50.0788 101.025C50.1488 101.11 50.1838 101.235 50.1838 101.4V107.7C50.1838 108.02 50.0513 108.18 49.7863 108.18ZM58.7669 108.128C58.5069 108.128 58.3769 107.945 58.3769 107.58V102.157L53.2244 108.023H52.3844V101.49C52.3844 101.135 52.5144 100.957 52.7744 100.957C53.0394 100.957 53.1719 101.137 53.1719 101.497V106.98L58.3619 101.062H59.1644V107.595C59.1644 107.95 59.0319 108.128 58.7669 108.128ZM54.9569 100.507C54.4469 100.507 54.0919 100.38 53.8919 100.125C53.6919 99.865 53.5919 99.4075 53.5919 98.7525V98.34H54.3794V98.9925C54.3794 99.2775 54.4244 99.47 54.5144 99.57C54.6094 99.67 54.7969 99.72 55.0769 99.72H56.6069C56.8919 99.72 57.0769 99.67 57.1619 99.57C57.2519 99.47 57.2969 99.2775 57.2969 98.9925V98.34H58.0844V98.7525C58.0844 99.4125 57.9869 99.87 57.7919 100.125C57.6019 100.38 57.2419 100.507 56.7119 100.507H54.9569ZM73.1829 108.128C72.9179 108.128 72.7854 107.955 72.7854 107.61V98.865C72.7854 98.51 72.9079 98.3325 73.1529 98.3325C73.3229 98.3325 73.4729 98.4275 73.6029 98.6175L76.4004 102.787L79.2129 98.6175C79.3429 98.4275 79.4904 98.3325 79.6554 98.3325C79.9054 98.3325 80.0304 98.51 80.0304 98.865V107.61C80.0304 107.955 79.9004 108.128 79.6404 108.128C79.3754 108.128 79.2429 107.95 79.2429 107.595V99.84L76.7379 103.612C76.6779 103.707 76.6229 103.77 76.5729 103.8C76.5279 103.825 76.4754 103.837 76.4154 103.837C76.3604 103.837 76.3054 103.825 76.2504 103.8C76.2004 103.77 76.1454 103.707 76.0854 103.612L73.5729 99.84V107.595C73.5729 107.95 73.4429 108.128 73.1829 108.128ZM85.4894 108.023C84.7194 108.023 84.0919 107.947 83.6069 107.797C83.1219 107.642 82.7619 107.372 82.5269 106.987C82.2969 106.602 82.1819 106.06 82.1819 105.36V103.717C82.1819 103.022 82.2969 102.482 82.5269 102.097C82.7619 101.712 83.1219 101.445 83.6069 101.295C84.0919 101.14 84.7194 101.062 85.4894 101.062H85.9244C86.6894 101.062 87.3144 101.14 87.7994 101.295C88.2894 101.445 88.6494 101.712 88.8794 102.097C89.1094 102.482 89.2244 103.022 89.2244 103.717V105.36C89.2244 106.06 89.1094 106.602 88.8794 106.987C88.6494 107.372 88.2894 107.642 87.7994 107.797C87.3144 107.947 86.6894 108.023 85.9244 108.023H85.4894ZM85.4894 107.235H85.9244C86.5794 107.235 87.0894 107.19 87.4544 107.1C87.8194 107.005 88.0744 106.822 88.2194 106.552C88.3644 106.277 88.4369 105.877 88.4369 105.352V103.732C88.4369 103.177 88.3594 102.767 88.2044 102.502C88.0494 102.232 87.7894 102.057 87.4244 101.977C87.0594 101.892 86.5594 101.85 85.9244 101.85H85.4894C84.8444 101.85 84.3369 101.892 83.9669 101.977C83.6019 102.057 83.3444 102.232 83.1944 102.502C83.0444 102.772 82.9694 103.182 82.9694 103.732V105.352C82.9694 105.882 83.0419 106.282 83.1869 106.552C83.3319 106.822 83.5869 107.005 83.9519 107.1C84.3219 107.19 84.8344 107.235 85.4894 107.235ZM90.6696 109.403C90.4046 109.403 90.2721 109.225 90.2721 108.87V108.113C90.2721 107.522 90.5371 107.23 91.0671 107.235H91.5246L91.0746 107.422C92.1496 105.702 92.6871 103.582 92.6871 101.062H96.6321V107.235H97.2771C97.7871 107.235 98.0421 107.527 98.0421 108.113V108.87C98.0421 109.225 97.9121 109.403 97.6521 109.403C97.3871 109.403 97.2546 109.225 97.2546 108.87V108.023H91.0596V108.87C91.0596 109.225 90.9296 109.403 90.6696 109.403ZM92.0646 107.235H95.8371V101.85H93.4896C93.4746 103.825 92.9996 105.62 92.0646 107.235ZM99.8834 108.128C99.6234 108.128 99.4934 107.955 99.4934 107.61V101.49C99.4934 101.135 99.6134 100.957 99.8534 100.957C100.138 100.957 100.281 101.135 100.281 101.49V103.942H105.486V101.49C105.486 101.135 105.616 100.957 105.876 100.957C106.141 100.957 106.273 101.135 106.273 101.49V107.61C106.273 107.955 106.141 108.128 105.876 108.128C105.616 108.128 105.486 107.955 105.486 107.61V104.73H100.281V107.61C100.281 107.955 100.148 108.128 99.8834 108.128ZM108.473 108.023V101.49C108.473 101.135 108.603 100.957 108.863 100.957C109.128 100.957 109.261 101.135 109.261 101.49V104.032H112.448C112.908 104.032 113.316 104.102 113.671 104.242C114.031 104.377 114.313 104.592 114.518 104.887C114.728 105.177 114.833 105.555 114.833 106.02C114.833 106.49 114.728 106.872 114.518 107.167C114.313 107.457 114.031 107.672 113.671 107.812C113.316 107.947 112.908 108.018 112.448 108.023H108.473ZM109.261 107.235H112.336C112.886 107.235 113.308 107.14 113.603 106.95C113.903 106.76 114.053 106.452 114.053 106.027C114.053 105.672 113.971 105.41 113.806 105.24C113.641 105.065 113.426 104.952 113.161 104.902C112.901 104.847 112.626 104.82 112.336 104.82H109.261V107.235ZM116.056 108.18C115.796 108.18 115.666 108.02 115.666 107.7V101.4C115.666 101.235 115.698 101.11 115.763 101.025C115.833 100.94 115.931 100.897 116.056 100.897C116.186 100.897 116.283 100.94 116.348 101.025C116.418 101.11 116.453 101.235 116.453 101.4V107.7C116.453 108.02 116.321 108.18 116.056 108.18ZM125.036 108.128C124.776 108.128 124.646 107.945 124.646 107.58V102.157L119.494 108.023H118.654V101.49C118.654 101.135 118.784 100.957 119.044 100.957C119.309 100.957 119.441 101.137 119.441 101.497V106.98L124.631 101.062H125.434V107.595C125.434 107.95 125.301 108.128 125.036 108.128ZM121.226 100.507C120.716 100.507 120.361 100.38 120.161 100.125C119.961 99.865 119.861 99.4075 119.861 98.7525V98.34H120.649V98.9925C120.649 99.2775 120.694 99.47 120.784 99.57C120.879 99.67 121.066 99.72 121.346 99.72H122.876C123.161 99.72 123.346 99.67 123.431 99.57C123.521 99.47 123.566 99.2775 123.566 98.9925V98.34H124.354V98.7525C124.354 99.4125 124.256 99.87 124.061 100.125C123.871 100.38 123.511 100.507 122.981 100.507H121.226ZM138.927 108.023V101.062H143.472C144.157 101.062 144.725 101.22 145.175 101.535C145.63 101.85 145.857 102.327 145.857 102.967C145.857 103.392 145.777 103.712 145.617 103.927C145.457 104.142 145.235 104.315 144.95 104.445C145.555 104.82 145.857 105.352 145.857 106.042C145.857 106.497 145.752 106.872 145.542 107.167C145.337 107.457 145.055 107.672 144.695 107.812C144.335 107.952 143.927 108.023 143.472 108.023H138.927ZM139.715 107.235H143.367C144.502 107.235 145.07 106.915 145.07 106.275C145.07 105.78 144.935 105.415 144.665 105.18C144.4 104.94 143.987 104.82 143.427 104.82H139.715V107.235ZM139.715 104.032H143.427C144.007 104.032 144.427 103.95 144.687 103.785C144.952 103.62 145.085 103.292 145.085 102.802C145.085 102.167 144.512 101.85 143.367 101.85H139.715V104.032ZM159.704 108.128C159.579 108.128 159.481 108.085 159.411 108C159.346 107.92 159.314 107.802 159.314 107.647V99.45C159.314 99.29 159.346 99.1675 159.411 99.0825C159.481 98.9925 159.584 98.9475 159.719 98.9475C159.974 98.9475 160.101 99.115 160.101 99.45V103.162H161.496C161.681 103.162 161.871 103.057 162.066 102.847C162.266 102.637 162.466 102.37 162.666 102.045C162.866 101.72 163.066 101.385 163.266 101.04C163.416 100.78 163.571 100.525 163.731 100.275C163.896 100.025 164.071 99.8 164.256 99.6C164.441 99.395 164.636 99.2325 164.841 99.1125C165.046 98.9925 165.266 98.9325 165.501 98.9325C165.856 98.9325 166.034 99.0725 166.034 99.3525C166.034 99.5125 165.976 99.61 165.861 99.645C165.751 99.68 165.636 99.705 165.516 99.72C165.186 99.765 164.914 99.925 164.699 100.2C164.484 100.475 164.259 100.825 164.024 101.25C163.809 101.64 163.629 101.957 163.484 102.202C163.344 102.442 163.219 102.645 163.109 102.81C163.004 102.97 162.886 103.115 162.756 103.245C162.631 103.37 162.476 103.51 162.291 103.665L162.284 103.455C162.529 103.655 162.744 103.867 162.929 104.092C163.114 104.312 163.294 104.565 163.469 104.85C163.649 105.135 163.846 105.467 164.061 105.847C164.351 106.357 164.599 106.725 164.804 106.95C165.014 107.17 165.256 107.3 165.531 107.34C165.616 107.35 165.696 107.365 165.771 107.385C165.851 107.4 165.914 107.432 165.959 107.482C166.009 107.532 166.034 107.612 166.034 107.722C166.034 107.993 165.864 108.128 165.524 108.128C165.164 108.128 164.826 107.988 164.511 107.707C164.201 107.422 163.901 107.065 163.611 106.635C163.466 106.41 163.334 106.2 163.214 106.005C163.099 105.805 162.981 105.605 162.861 105.405C162.566 104.915 162.306 104.55 162.081 104.31C161.861 104.07 161.641 103.95 161.421 103.95H160.101V107.647C160.101 107.802 160.066 107.92 159.996 108C159.931 108.085 159.834 108.128 159.704 108.128ZM168.101 110.753C167.846 110.753 167.719 110.575 167.719 110.22V101.475C167.719 101.13 167.851 100.957 168.116 100.957C168.251 100.957 168.349 101.002 168.409 101.092C168.474 101.182 168.506 101.327 168.506 101.527V102.405L168.371 102.225C168.656 101.83 169.021 101.537 169.466 101.347C169.911 101.157 170.434 101.062 171.034 101.062H171.469C172.234 101.062 172.859 101.14 173.344 101.295C173.829 101.445 174.186 101.712 174.416 102.097C174.646 102.482 174.761 103.022 174.761 103.717V105.36C174.761 106.06 174.646 106.602 174.416 106.987C174.186 107.372 173.829 107.642 173.344 107.797C172.859 107.947 172.236 108.023 171.476 108.023H168.506V110.22C168.506 110.575 168.371 110.753 168.101 110.753ZM168.506 107.235H171.476C172.131 107.235 172.639 107.19 172.999 107.1C173.359 107.005 173.611 106.822 173.756 106.552C173.901 106.277 173.974 105.877 173.974 105.352V103.732C173.974 103.177 173.896 102.767 173.741 102.502C173.586 102.232 173.326 102.057 172.961 101.977C172.596 101.892 172.099 101.85 171.469 101.85H171.034C170.204 101.85 169.574 102.077 169.144 102.532C168.719 102.987 168.506 103.65 168.506 104.52V107.235ZM182.456 108.128C182.326 108.128 182.236 108.08 182.186 107.985C182.136 107.89 182.106 107.727 182.096 107.497C182.091 107.262 182.086 106.937 182.081 106.522L182.201 106.807C181.921 107.227 181.561 107.535 181.121 107.73C180.681 107.925 180.159 108.023 179.554 108.023H178.159C177.684 108.023 177.296 107.857 176.996 107.527C176.701 107.197 176.554 106.687 176.554 105.997C176.554 105.447 176.646 105.012 176.831 104.692C177.016 104.372 177.266 104.133 177.581 103.972C177.901 103.812 178.256 103.707 178.646 103.657C179.041 103.607 179.446 103.582 179.861 103.582H182.419L182.066 103.927V102.712C182.066 102.392 182.006 102.17 181.886 102.045C181.771 101.915 181.556 101.85 181.241 101.85H179.126C178.701 101.85 178.356 101.882 178.091 101.947C177.831 102.007 177.641 102.102 177.521 102.232C177.401 102.362 177.341 102.53 177.341 102.735C177.336 102.895 177.309 103.017 177.259 103.102C177.214 103.187 177.109 103.23 176.944 103.23C176.684 103.23 176.554 103.042 176.554 102.667C176.554 102.132 176.774 101.732 177.214 101.467C177.659 101.197 178.261 101.062 179.021 101.062H181.346C181.921 101.062 182.316 101.202 182.531 101.482C182.746 101.757 182.854 102.252 182.854 102.967V107.61C182.854 107.955 182.721 108.128 182.456 108.128ZM178.174 107.25H179.554C180.474 107.25 181.126 106.99 181.511 106.47C181.901 105.945 182.086 105.17 182.066 104.145L182.299 104.355H179.861C179.306 104.355 178.841 104.392 178.466 104.467C178.091 104.537 177.809 104.685 177.619 104.91C177.434 105.135 177.341 105.475 177.341 105.93C177.341 106.4 177.424 106.737 177.589 106.942C177.759 107.147 177.954 107.25 178.174 107.25ZM188.116 108.023C187.346 108.023 186.719 107.947 186.234 107.797C185.749 107.642 185.389 107.372 185.154 106.987C184.924 106.602 184.809 106.06 184.809 105.36V103.717C184.809 103.022 184.924 102.482 185.154 102.097C185.389 101.712 185.749 101.445 186.234 101.295C186.719 101.14 187.346 101.062 188.116 101.062H190.276C190.671 101.062 190.974 101.137 191.184 101.287C191.394 101.432 191.539 101.622 191.619 101.857C191.699 102.092 191.739 102.34 191.739 102.6C191.739 102.84 191.706 103.012 191.641 103.117C191.581 103.222 191.481 103.275 191.341 103.275C191.186 103.275 191.081 103.215 191.026 103.095C190.976 102.975 190.951 102.85 190.951 102.72C190.946 102.46 190.896 102.25 190.801 102.09C190.711 101.93 190.486 101.85 190.126 101.85H188.116C187.471 101.85 186.964 101.892 186.594 101.977C186.229 102.057 185.971 102.232 185.821 102.502C185.671 102.772 185.596 103.182 185.596 103.732V105.352C185.596 105.882 185.669 106.282 185.814 106.552C185.959 106.822 186.214 107.005 186.579 107.1C186.949 107.19 187.461 107.235 188.116 107.235H190.126C190.491 107.235 190.716 107.16 190.801 107.01C190.886 106.86 190.936 106.645 190.951 106.365C190.961 106.165 191.001 106.022 191.071 105.937C191.141 105.852 191.234 105.81 191.349 105.81C191.479 105.81 191.576 105.86 191.641 105.96C191.706 106.06 191.739 106.23 191.739 106.47C191.739 106.765 191.694 107.03 191.604 107.265C191.519 107.5 191.366 107.685 191.146 107.82C190.926 107.955 190.621 108.023 190.231 108.023H188.116ZM194.073 108.128C193.813 108.128 193.683 107.955 193.683 107.61V101.49C193.683 101.135 193.803 100.957 194.043 100.957C194.328 100.957 194.47 101.135 194.47 101.49V103.942H199.675V101.49C199.675 101.135 199.805 100.957 200.065 100.957C200.33 100.957 200.463 101.135 200.463 101.49V107.61C200.463 107.955 200.33 108.128 200.065 108.128C199.805 108.128 199.675 107.955 199.675 107.61V104.73H194.47V107.61C194.47 107.955 194.338 108.128 194.073 108.128ZM205.768 108.023C204.998 108.023 204.37 107.947 203.885 107.797C203.4 107.642 203.04 107.372 202.805 106.987C202.575 106.602 202.46 106.06 202.46 105.36V103.717C202.46 103.022 202.575 102.482 202.805 102.097C203.04 101.712 203.4 101.445 203.885 101.295C204.37 101.14 204.998 101.062 205.768 101.062H206.203C206.968 101.062 207.593 101.14 208.078 101.295C208.568 101.445 208.928 101.712 209.158 102.097C209.388 102.482 209.503 103.022 209.503 103.717V105.36C209.503 106.06 209.388 106.602 209.158 106.987C208.928 107.372 208.568 107.642 208.078 107.797C207.593 107.947 206.968 108.023 206.203 108.023H205.768ZM205.768 107.235H206.203C206.858 107.235 207.368 107.19 207.733 107.1C208.098 107.005 208.353 106.822 208.498 106.552C208.643 106.277 208.715 105.877 208.715 105.352V103.732C208.715 103.177 208.638 102.767 208.483 102.502C208.328 102.232 208.068 102.057 207.703 101.977C207.338 101.892 206.838 101.85 206.203 101.85H205.768C205.123 101.85 204.615 101.892 204.245 101.977C203.88 102.057 203.623 102.232 203.473 102.502C203.323 102.772 203.248 103.182 203.248 103.732V105.352C203.248 105.882 203.32 106.282 203.465 106.552C203.61 106.822 203.865 107.005 204.23 107.1C204.6 107.19 205.113 107.235 205.768 107.235ZM210.948 109.403C210.683 109.403 210.55 109.225 210.55 108.87V108.113C210.55 107.522 210.815 107.23 211.345 107.235H211.803L211.353 107.422C212.428 105.702 212.965 103.582 212.965 101.062H216.91V107.235H217.555C218.065 107.235 218.32 107.527 218.32 108.113V108.87C218.32 109.225 218.19 109.403 217.93 109.403C217.665 109.403 217.533 109.225 217.533 108.87V108.023H211.338V108.87C211.338 109.225 211.208 109.403 210.948 109.403ZM212.343 107.235H216.115V101.85H213.768C213.753 103.825 213.278 105.62 212.343 107.235ZM225.464 108.128C225.334 108.128 225.244 108.08 225.194 107.985C225.144 107.89 225.114 107.727 225.104 107.497C225.099 107.262 225.094 106.937 225.089 106.522L225.209 106.807C224.929 107.227 224.569 107.535 224.129 107.73C223.689 107.925 223.167 108.023 222.562 108.023H221.167C220.692 108.023 220.304 107.857 220.004 107.527C219.709 107.197 219.562 106.687 219.562 105.997C219.562 105.447 219.654 105.012 219.839 104.692C220.024 104.372 220.274 104.133 220.589 103.972C220.909 103.812 221.264 103.707 221.654 103.657C222.049 103.607 222.454 103.582 222.869 103.582H225.427L225.074 103.927V102.712C225.074 102.392 225.014 102.17 224.894 102.045C224.779 101.915 224.564 101.85 224.249 101.85H222.134C221.709 101.85 221.364 101.882 221.099 101.947C220.839 102.007 220.649 102.102 220.529 102.232C220.409 102.362 220.349 102.53 220.349 102.735C220.344 102.895 220.317 103.017 220.267 103.102C220.222 103.187 220.117 103.23 219.952 103.23C219.692 103.23 219.562 103.042 219.562 102.667C219.562 102.132 219.782 101.732 220.222 101.467C220.667 101.197 221.269 101.062 222.029 101.062H224.354C224.929 101.062 225.324 101.202 225.539 101.482C225.754 101.757 225.862 102.252 225.862 102.967V107.61C225.862 107.955 225.729 108.128 225.464 108.128ZM221.182 107.25H222.562C223.482 107.25 224.134 106.99 224.519 106.47C224.909 105.945 225.094 105.17 225.074 104.145L225.307 104.355H222.869C222.314 104.355 221.849 104.392 221.474 104.467C221.099 104.537 220.817 104.685 220.627 104.91C220.442 105.135 220.349 105.475 220.349 105.93C220.349 106.4 220.432 106.737 220.597 106.942C220.767 107.147 220.962 107.25 221.182 107.25ZM228.394 110.753C228.139 110.753 228.012 110.575 228.012 110.22V101.475C228.012 101.13 228.144 100.957 228.409 100.957C228.544 100.957 228.642 101.002 228.702 101.092C228.767 101.182 228.799 101.327 228.799 101.527V102.405L228.664 102.225C228.949 101.83 229.314 101.537 229.759 101.347C230.204 101.157 230.727 101.062 231.327 101.062H231.762C232.527 101.062 233.152 101.14 233.637 101.295C234.122 101.445 234.479 101.712 234.709 102.097C234.939 102.482 235.054 103.022 235.054 103.717V105.36C235.054 106.06 234.939 106.602 234.709 106.987C234.479 107.372 234.122 107.642 233.637 107.797C233.152 107.947 232.529 108.023 231.769 108.023H228.799V110.22C228.799 110.575 228.664 110.753 228.394 110.753ZM228.799 107.235H231.769C232.424 107.235 232.932 107.19 233.292 107.1C233.652 107.005 233.904 106.822 234.049 106.552C234.194 106.277 234.267 105.877 234.267 105.352V103.732C234.267 103.177 234.189 102.767 234.034 102.502C233.879 102.232 233.619 102.057 233.254 101.977C232.889 101.892 232.392 101.85 231.762 101.85H231.327C230.497 101.85 229.867 102.077 229.437 102.532C229.012 102.987 228.799 103.65 228.799 104.52V107.235ZM240.177 108.023C239.407 108.023 238.779 107.947 238.294 107.797C237.809 107.642 237.449 107.372 237.214 106.987C236.984 106.602 236.869 106.06 236.869 105.36V103.717C236.869 103.022 236.984 102.482 237.214 102.097C237.449 101.712 237.809 101.445 238.294 101.295C238.779 101.14 239.407 101.062 240.177 101.062H240.612C241.377 101.062 242.002 101.14 242.487 101.295C242.977 101.445 243.337 101.712 243.567 102.097C243.797 102.482 243.912 103.022 243.912 103.717V104.325H237.657V105.352C237.657 105.882 237.729 106.282 237.874 106.552C238.019 106.822 238.274 107.005 238.639 107.1C239.009 107.19 239.522 107.235 240.177 107.235H242.262C242.577 107.235 242.792 107.167 242.907 107.032C243.027 106.897 243.087 106.675 243.087 106.365C243.087 106.18 243.124 106.042 243.199 105.952C243.279 105.857 243.372 105.81 243.477 105.81C243.592 105.81 243.687 105.855 243.762 105.945C243.837 106.035 243.874 106.162 243.874 106.327C243.874 106.657 243.834 106.952 243.754 107.212C243.674 107.467 243.527 107.667 243.312 107.812C243.097 107.952 242.782 108.023 242.367 108.023H240.177ZM237.657 103.537H243.117C243.107 102.907 242.954 102.475 242.659 102.24C242.474 102.085 242.212 101.982 241.872 101.932C241.537 101.877 241.117 101.85 240.612 101.85H240.177C239.677 101.85 239.262 101.875 238.932 101.925C238.602 101.97 238.342 102.06 238.152 102.195C237.832 102.425 237.667 102.872 237.657 103.537Z" fill="white"/>
<g filter="url(#filter0_d_16_8)">
<path d="M4 83L4 78L334 78V83L4 83Z" fill="url(#paint0_linear_16_8)" shape-rendering="crispEdges"/>
</g>
<defs>
<filter id="filter0_d_16_8" x="0" y="78" width="338" height="13" filterUnits="userSpaceOnUse" color-interpolation-filters="sRGB">
<feFlood flood-opacity="0" result="BackgroundImageFix"/>
<feColorMatrix in="SourceAlpha" type="matrix" values="0 0 0 0 0 0 0 0 0 0 0 0 0 0 0 0 0 0 127 0" result="hardAlpha"/>
<feOffset dy="4"/>
<feGaussianBlur stdDeviation="2"/>
<feComposite in2="hardAlpha" operator="out"/>
<feColorMatrix type="matrix" values="0 0 0 0 0 0 0 0 0 0 0 0 0 0 0 0 0 0 0.25 0"/>
<feBlend mode="normal" in2="BackgroundImageFix" result="effect1_dropShadow_16_8"/>
<feBlend mode="normal" in="SourceGraphic" in2="effect1_dropShadow_16_8" result="shape"/>
</filter>
<linearGradient id="paint0_linear_16_8" x1="4" y1="80.5" x2="334" y2="80.5" gradientUnits="userSpaceOnUse">
<stop stop-color="white"/>
<stop offset="1" stop-color="white" stop-opacity="0"/>
</linearGradient>
</defs>
</svg>
